<?xml version="1.0" encoding="utf-8"?>
<svg viewBox="0 0 500 500" xmlns="http://www.w3.org/2000/svg" xmlns:xlink="http://www.w3.org/1999/xlink" xmlns:bx="https://boxy-svg.com">
  <defs>
    <linearGradient id="gradient-2" bx:pinned="true">
      <stop offset="0" style="stop-color: rgb(189, 177, 251);"/>
      <stop offset="1" style="stop-color: rgb(56, 40, 137);"/>
    </linearGradient>
    <linearGradient id="gradient-2-0" gradientUnits="userSpaceOnUse" x1="249.128" y1="108.223" x2="249.128" y2="387.839" gradientTransform="matrix(1, 0, 0, 1, 0.522352, -0.522402)" xlink:href="#gradient-2"/>
  </defs>
  <path d="M 461.989 195.13 C 471.654 233.897 435.897 278.674 375.006 312.516 C 351.223 356.99 303.798 387.317 249.174 387.317 C 220.008 387.317 192.894 378.671 170.336 363.842 C 100.132 362.771 47.029 339.987 37.312 301.014 C 27.762 262.712 62.552 218.542 122.115 184.85 C 145.467 139.098 193.594 107.701 249.174 107.701 C 279.078 107.701 306.825 116.79 329.716 132.314 C 399.547 133.535 452.307 156.296 461.989 195.13 Z M 70.452 301.149 C 76.408 321.921 103.025 334.591 140.998 338.165 C 119.847 313.756 107.08 282.1 107.08 247.509 C 107.08 243.191 107.279 238.92 107.668 234.702 C 79.316 257.185 64.695 281.071 70.452 301.149 Z M 432.485 197.337 C 426.434 176.235 399.064 163.495 360.125 160.157 C 379.612 184.088 391.268 214.459 391.268 247.509 C 391.268 254.474 390.75 261.32 389.751 268.012 C 421.698 244.324 438.604 218.679 432.485 197.337 Z M 277.23 306.128 L 267.075 244.49 C 275.532 239.753 279.17 228.619 279.17 218.221 C 279.17 202.927 263.66 189.485 248.397 189.485 C 233.133 189.485 219.189 203.972 219.189 219.266 C 219.189 229.664 223.35 238.709 231.809 243.445 L 217.992 306.65 Z" style="stroke: rgb(0, 0, 0); fill: url('#gradient-2-0'); stroke-width: 0px; stroke-opacity: 0.59;"/>
</svg>